/* XPM */
static char *result[] = {
/* columns rows colors chars-per-pixel */
"64 64 231 2 ",
"   c #DCDBD7",
".  c #DAD9D5",
"X  c #DAD9D4",
"o  c #D9D8D3",
"O  c #D8D7D2",
"+  c #D7D6D1",
"@  c #DEDDD8",
"#  c #C9C8C3",
"$  c #DFDED9",
"%  c #E2E1DC",
"&  c #E0DFDA",
"*  c #DFDEDA",
"=  c #E0DFDB",
"-  c #E2E1DD",
";  c #E7E6E2",
":  c #D7D6D2",
">  c #D2D1CD",
",  c #EDECE8",
"<  c #E4E3DF",
"1  c #E9E8E4",
"2  c #E8E7E3",
"3  c #D8D7D3",
"4  c #DDDCD7",
"5  c #C4C3BE",
"6  c #DBDAD5",
"7  c #DCDBD6",
"8  c #DDDCD8",
"9  c #DBDAD6",
"0  c #CAC9C5",
"q  c #DEDDD9",
"w  c #D5D4D0",
"e  c #D3D2CE",
"r  c #D4D3CE",
"t  c #D5D4CF",
"y  c #C0BFBA",
"u  c #D1D0CB",
"i  c #D0CFCA",
"p  c #D6D5D0",
"a  c #D9D8D4",
"s  c #CDCCC8",
"d  c #E3E2DE",
"f  c #E1E0DC",
"g  c #D4D3CF",
"h  c #E1E0DB",
"j  c #C8C7C2",
"k  c #E5E4E0",
"l  c #C2C1BC",
"z  c #CECDC9",
"x  c #C7C6C2",
"c  c #D1D0CC",
"v  c #C6C5C0",
"b  c #D0CFCB",
"n  c #CFCECA",
"m  c #A9A8A4",
"M  c #AEADA9",
"N  c #AFAEA9",
"B  c #B1B0AB",
"V  c #B7B6B1",
"C  c #BAB9B4",
"Z  c #C1C0BB",
"A  c #A8A7A2",
"S  c #B8B7B2",
"D  c #B9B8B3",
"F  c #BBBAB5",
"G  c #BCBBB6",
"H  c #BDBCB8",
"J  c #BCBBB7",
"K  c #BAB9B5",
"L  c #C9C8C4",
"P  c #BEBDB9",
"I  c #B2B1AD",
"U  c #ADACA8",
"Y  c #B6B5B1",
"T  c #AFAEAA",
"R  c #B0AFAB",
"E  c #B1B0AC",
"W  c #B3B2AE",
"Q  c #B4B3AF",
"!  c #ABAAA6",
"~  c #ACABA7",
"^  c #B5B4B0",
"/  c #B8B7B3",
"(  c #C1C0BC",
")  c #BEBDB8",
"_  c #BFBEB9",
"`  c #C3C2BD",
"'  c #C5C4BF",
"]  c #B6B5B0",
"[  c #B3B2AD",
"{  c #C6C5C1",
"}  c #C4C3BF",
"|  c #CBCAC6",
" . c #C8C7C3",
".. c #CCCBC7",
"X. c #E6E5E1",
"o. c #EAE9E5",
"O. c #E3E2DD",
"+. c #E9E8E3",
"@. c #CFCEC9",
"#. c #E6E5E0",
"$. c #C7C6C1",
"%. c #D6D5D1",
"&. c #D3D2CD",
"*. c #D2D1CC",
"=. c #E4E3DE",
"-. c #CDCCC7",
";. c #C0BFBB",
":. c #C2C1BD",
">. c #C5C4C0",
",. c #BDBCB7",
"<. c #CAC9C4",
"1. c #CCCBC6",
"2. c #C3C2BE",
"3. c #C0C0B8",
"4. c #BFBFB7",
"5. c #BEBEB6",
"6. c #BDBDB5",
"7. c #BCBCB4",
"8. c #BBBBB3",
"9. c #C1C1B9",
"0. c #C6C6BE",
"q. c #CECDC8",
"w. c #B2B1AC",
"e. c #AAA9A4",
"r. c #AEADA8",
"t. c #ABAAA5",
"y. c #B0AFAA",
"u. c #B1B1A9",
"i. c #B0B0A8",
"p. c #AFAFA7",
"a. c #B2B2AA",
"s. c #B4B4AC",
"d. c #B9B9B1",
"f. c #BABAB2",
"g. c #B5B5AD",
"h. c #ADACA7",
"j. c #B5B4AF",
"k. c #DFDFD7",
"l. c #DEDED6",
"z. c #DDDDD5",
"x. c #DCDCD4",
"c. c #E2E2DA",
"v. c #E3E3DB",
"b. c #E1E1D9",
"n. c #E7E6E1",
"m. c #EAE9E4",
"M. c #E5E4DF",
"N. c #E8E7E2",
"B. c #F0EFEA",
"V. c #EEEDE8",
"C. c #ECEBE6",
"Z. c #F3F2ED",
"A. c #EFEEE9",
"S. c #EBEAE5",
"D. c #EDECE7",
"F. c #D2D2CA",
"G. c #D1D1C9",
"H. c #D0D0C8",
"J. c #CECEC6",
"K. c #CFCFC7",
"L. c #D3D3CB",
"P. c #D6D6CE",
"I. c #D4D4CC",
"U. c #D5D5CD",
"Y. c #CBCAC5",
"T. c #D7D7CF",
"R. c #D8D8D0",
"E. c #D9D9D1",
"W. c #DBDBD3",
"Q. c #C4C4BC",
"!. c #C3C3BB",
"~. c #C7C7BF",
"^. c #C2C2BA",
"/. c #A5A59D",
"(. c #A7A79F",
"). c #A9A9A1",
"_. c #AAAAA2",
"`. c #ABABA3",
"'. c #B3B3AB",
"]. c #A5A49F",
"[. c #A9A8A3",
"{. c #ACABA6",
"}. c #DADAD2",
"|. c #C5C5BD",
" X c #CDCDC5",
".X c #CBCBC3",
"XX c #C9C9C1",
"oX c #CCCCC4",
"OX c #B6B6AE",
"+X c #B7B7AF",
"@X c #CACAC2",
"#X c #C8C8C0",
"$X c #A8A8A0",
"%X c #ADADA5",
"&X c #ACACA4",
"*X c #AEAEA6",
"=X c #B8B8B0",
"-X c #A3A39B",
";X c #A0A098",
":X c #E0E0D8",
">X c #E7E7DF",
",X c #E4E4DC",
"<X c #EDEDE5",
"1X c #E6E6DE",
"2X c #E5E5DD",
"3X c #E9E9E1",
"4X c #E8E8E0",
"5X c #EAEAE2",
"6X c #ECECE4",
"7X c #A2A29A",
"8X c #A4A49C",
"9X c #A1A199",
"0X c #9E9E96",
"qX c #9F9F97",
"wX c #93938B",
"eX c #919189",
"rX c #8F8F87",
"tX c #909088",
"yX c #95958D",
"uX c #94948C",
"iX c #9A9A92",
"pX c #9B9B93",
"aX c #9C9C94",
"sX c #9D9D95",
"dX c #A6A69E",
"fX c #F0F0E8",
"gX c #96968E",
"hX c #989890",
"jX c #92928A",
"kX c #999991",
"lX c white",
/* pixels */
"                . . . . . . . . X o O + @ # $ % @ @ $ & & & & & * * * * * * * * = = = = = = = = - ; : > ; , < ; 1 1 1 1 1 2 2 2 ",
"> > > > > > > > 3 3 3 3 3 3 3 3 o o o O 4 5 + O X 6 7 4 4 4 7 7                 8 8 8 8 8 8 8 8 9 - > 0 9 q w 9                 ",
"3 3 3 3 3 3 3 3 e e e e e e e e r t + + 6 y u i t p + + O O + + : : : : : : : : a a a a a a a a a - w s q -   d = = = = = = f f ",
"g g g g g g g g a a a a a a a a O o 7 7 h j X X 6 6 7 4 @ @ 4 4 q q q q q q q q = = = = = = = =   - e s = k 8 - . 9 9 9 9       ",
"a a a a a a a a w w w w w w w w t r t r X l p p t p + O O O O + 3 3 3 3 3 3 3 3 . . . . . . . . * f z x 9 * e g = = = f f - - - ",
"c c c c c c c c 3 3 3 3 3 3 3 3 X o O p X l t p O O o X 6 X X X 9 9 9 9 9 9 9 9                 * d > s - 2 q = 3 a a . 9 9     ",
". . . . . . . . : : : : : : : : o o 6 6 & v O + 6 7 4 @ @ @ @ 4 * * * * * * * * * * * * * * * * b 9 n x : . w q f f - d < < k k ",
"m m m m m m m m M M M M M M M M N B V C Z A S V D C F G G G G G H H H H H H H H J J J J J J J J K L P M I U m Y T T R E I W W Q ",
"! ~ M R I W ^ Y / / P ^ ( U E / ) ) _ ` v ' y G Z ] [ l B ' j l { { { { { { { { } L 0 K n | z x w 3 a g s  .L ..n W } > s > z s ",
"9   8 * = - d d = = X.8 o.w 3 = 7 7 4 & O.% $ 6 O.4 4 +.@.$ #.#.X.X.X.X.X.X.X.X.d X.X.g 2 < 2 f - X.2 ; - f d ; X.0 9 2 d ; < d ",
"z n n b c > e e e c 3 b 8 x 0 e p t t + o o + t u u t 7 C $.u p e e e e e e e e 9 8 9 x . : 9 %.w 3 9 9 a a   = = } g = 9 * 9 . ",
"e e e g g g w w a %.  : d | n . &.*.u *.*.&.r r o o @ =.Z -.O 4 . . . . . . . . %.: g ;.e > : e : a . a : : 3 . f } e * a 8 a a ",
"b b b b b b b b > s e n 9 :.>.> o o O O O o X 7 r u r 7 ,.<.&.p w w w w w w w w 9   a >.. . = 8 8 q q 8   9   8 k  .: -   = 8 q ",
": : : : : : 3 3 a > 3 %.- x | a u &.&.&.*.*.r p 6 p p & 5 &.X X 9 9 9 9 9 9 9 9 w %.g ( %.w   3 w w %.: : 3 a a * ( b 9 %.9 3 a ",
"z z z n b b c c w s e > q :.>.w &.t + + t r p O r u *.6 ,.<.*.r w w w w w w w w a . 3 >.a 3 8 a a 3 a .   q q q d >.g * . = q * ",
"e e g w %.: : 3 . > 3 3 < x 0 9 *.t O O p t p O X o 6 % Z 1.p X . . . . . . . . 9 8 . x . :   %.a 3 3 a . 9 9 . f 2.> 8 a * q = ",
"3.3.4.4.5.5.6.6.7.8.7.9.0.0.9.8.$.v ) 5 Z Z q.Z <.v # q.# ,.G 5 _ _ ) ,.,.G G F D _ ` ) w.e.e.r.t.] e.B C w.[ y.' _ C C _ 5 v ' ",
"u.u.u.i.i.p.p.p.a.i.i.s.d.f.g.i.t.h.e.[ y.w.5 F y F G l _ j.[ D ] ] ] ] ] ] ] ] _ 5 # j Z ,.) l y <.,.` 1.' j ' @.# l _ y y ) F ",
"k.k.l.l.l.l.z.z.k.z.x.l.c.v.b.l.7 $ 7 % o t n.% +.O.O.+.m.O.& O.% % O.O.=.M.#.#.& O.#.N.n.#.n.N.N.B.h #.B.m.V.C.Z.A.S.S.V.A.D.m.",
"F.F.F.G.G.G.G.G.F.H.J.K.F.L.L.G.t o p o j ) i @.p i @.r O r u u &.&.&.r r t t t *.*.&.r p p r &.r X j 1.+ &.O p *.u *.t o 6 6 X ",
"F.F.F.F.F.F.F.F.P.I.L.L.I.U.P.P.@.r t 6 <._ r O O &.*.p o O p t O O O + + p p p 7 6 o X 7 7 6 O X @ <.q.X + 4 X 6 6 6 6 7 6 o + ",
"F.F.L.L.L.L.I.I.I.I.L.L.L.I.I.U.u r t 4 1._ t X + p t + O o O O 6 X X o O + + p t r r t + O + + o 4 j 1.o + 6 O @ @ @ @ 4 7 6 X ",
"F.F.F.L.L.I.I.I.G.G.F.F.G.G.G.G.+ + t 4 Y.G @.r &.t p t r t p + + + + p p p p p p + + + + O o X 4 & Y.i @ 6 $ 6 t p + O o X 7 4 ",
"G.G.G.F.F.L.L.I.F.L.U.U.I.F.F.L.*.u i X <.G i t &.+ O t *.&.p O t p p + + O o o + O o + r r t + X 7 j -.6 o 7 + O o o O O O X 7 ",
"G.J.J.H.F.G.G.F.U.L.L.U.T.R.E.W.r r o 6 i 5 <.X r 6 p *.O p *.t + + + + p p p p O o r 6 p r h &.6 7 -.5 t O.$ O & *.$ 4 o h 7 4 ",
"Q.!.Q.0.~.~.0.~.^.3.3.^.!.Q.Q.Q.j ' j @.Y.y _ v ` <.$.' 1.1.j -.<.<.<.Y.Y.1.1.-.1.q.<.*.1.<.O 1.i p Y._ $.q.1.<.&.' u q.# *.@.i ",
"/.(.)._.`.`.`._.u.i.i.i.a.'.u.p.] y.B F _ V N r.].t.A A N h.[.N t.t.{.r.N y.B B S C V y D ] ' G y 1.$.C C F F _ _ [ ,.S w.,.F ,.",
"K.I.R.R.R.}.E.T.W.W.}.}.W.z.E.L.6 t p $ =.$ + r o 4 o O 7 p i p o o X 6 7 4 4 @ 7 4 X O.o &.=.$ & D.C.O.O.O.% +.=.o % o &.& & % ",
"0.K.U.I.I.P.P.F.F.I.L.G.I.P.H.0.r *.&.+ O p r r X 6 + + X i j @.+ + + + + + + + + + t 7 @.v + p u 6 o t X X p 6 4 r @ *.<.O X 6 ",
"d.|. X.X.XJ.J.XXK.F.F.K.F.P.J.9.&.&.&.*.u u &.t @.i -.i r # Z <.i i @.@.@.q.q.q.O O p 4 q.Z r p *.+ &.*.o + *.t X r $ u j + O o ",
"f.XXL.H.K.L.L. XoXG.H.J.F.T.J.4.i i @.q.q.@.i @.*.*.@.t X q.$.u r r r r t t t t r t &.7 Y.,.*.+ &.O r &.o p *.O p *.@ @.' t p t ",
"OX0.G.J.oXG.G..X.XH.H. XF.R.J.5.&.*.i @.*.r u 1.i @.1.*.+ <.l -.i i u *.&.r t p r r &.4 1.) r 6 i + p t o p t $ O p % &.j O o + ",
"'.0.L.K..XJ.H. XoX.XK.J. XU.H.f.G.oXH.G.oXG.T.G.K.J.J.U.U.Q.^.P.F.F.F.F.F.F.F.F.U.I.T.R. XQ.K.c.I.G.H.I.P.T.T.R.I.z.b.L.~.L.k.P.",
"+X~.G.J.oXH.F.J..XoXF.L.G.U.oXg.F.K.L.I.K.G.L.J.E.R.I.E.z.G.~.K.L.L.L.L.L.L.L.L.P.U.R.}.K.!.0.L.T.P.P.R.}.E.T.U.G.I.R.K.|.K.x.R.",
"6.~.oX@X.XG.F.J.J. XG.G.K.U.H.5. X XK.G.H.H.K.J..XoX0.#XL.K.9.7.^.^.^.^.^.^.^.^.4.3.~.K. XQ.!.@XXXXXXX@X.XXX|.9.#X0.J.K.Q.|.oXoX",
"/.)._.$X_.i.i.`.s.%X&X_.).s.f.i.`.%X&X*Xs.a.u.+Xp.OXu.p.6.^.=Xp.-X-X-X-X-X-X-X-X;X;X$X'.=Xg.'.g.+X+XOX'.s.g.'.p.*X_.OX4.s._.).$X",
"5.5.7.f.7.4.5.f.Q.7.8.f.=X^.@XQ.3.!.7.6.0.^.4.oX0.F.J.~.F.W.T.I.z.z.z.z.z.z.z.z.:Xz.l.v.>X,Xb.k.v.,Xk.}.W.c.v.:Xb.E.c.<Xv.E.E.}.",
"1X,Xc.b.b.c.b.:Xv.z.b.2Xb.v.2Xz.v.>Xx.}.2X}.G.v.l.3X1Xl.,X4X4X5X2X2X2X2X2X2X2X2X>Xv.b.b.,X,Xb.k.l.l.E.G.L.z.c.l.3Xk.c.>Xb.:X4X6X",
"G.H.H.G.H.K.H.G.K.@XG.P.G.H.G.@XoXI.XX#XU.Q.s.~.J.U.G. XF.G. XF.H.H.H.H.H.H.H.H.J. XoXoXK.F.L.G.U.T.L.@XoXT.}.I.T.K.F.I.K.L.x.W.",
"oX XK.H.K.J.H.L.F.@XJ.L.J.G.T.I. XE.H.G.b.oXd.oXH.L.K.G.R.I.oXH.I.I.I.I.I.I.I.I.U.U.I.L.I.P.P.U.F.T.L..XoXP.T.K.F.G.R.W.U.R.}.G.",
"L.F.F.G.G.H.H.K. X XJ.J.K.H.H.H..XH.H.oXx.F.8.R.P.I.G.G.F.F.G.H.L.L.F.F.F.F.G.G.T.I.G.G.G.G.I.T.L.L.R.~.|.P.U.E.T.T.P.U.U.P.R.}.",
"K.J.J.J.J.J. X XJ.J.J.J.J.J.J.J.G.U.L.oXT.@Xi.XX@XoX X X X XK.H.H.H.G.F.L.L.I.I.H.H.G.L.L.G.H.H.L.G.T.XX.XW.L.L.P.P.P.P.U.P.R.E.",
" X X XJ.J.J.J.J.H.H.H.H.K.K.K.K.K.G.F. XP.oXs.~.K.L.P.P.I.L.U.R.H.G.G.F.F.L.L.L.L.L.I.I.I.I.L.L.}.L.U.~.@XR.K. XL.L.L.L.I.I.I.U.",
" X X XJ.J.K.K.H.K.K.H.H.H.H.G.G.J. XF.J.P.H.8.#XJ.K.H.H.K. XoX.XP.P.U.I.L.F.G.G.I.L.H..X.XH.L.I.E.G.L.0.#XR.U.W.T.T.T.R.E.}.E.R.",
"J.K.K.H.H.G.G.F.J.J.K.H.G.F.L.L.P.G.T.F.U.F.3.|.L.H.J.K.G.G.J.@X#X#X#X~.0.|.Q.Q.5.9.4.f.f.4.9.5.9.9.oX!.^.J.J.}.G.H.J.K.F.L.F.H.",
"7X-X-X-X-X-X8X8X;X9X9X7X-X-X8X8X(.0X(./.(.&XqX;XwXeXrXtXwXyXyXuXiXpXaXsX0XqX;X9XiX7X/.7X7X/.7XiXqX-X'.&X-X-XpX8X(.-XqX;X-XdXdX8X",
"6.6.6.6.6.7.7.7.6.6.6.7.7.8.8.8.5.'.5.5.3.oXQ.^.|.#XXX~.!.Q.@XH.@X.XoXJ.H.F.L.I.U.x.x.U.U.x.x.U.}.R.2Xx.L.G.0. XI.J.XXXX XG.F.H.",
"k.k.l.l.z.x.x.x.c.b.:Xl.x.}.E.R.4X}.v.:Xl.5Xc.l.W.v.1Xk.L.G.x.4Xb.c.c.v.,X2X2X1X>X4X:XF.F.:X4X>X3X:X1X:X:X4X2XfX6X2Xl.z.c.>X4X>X",
"9.#XoXoX.X XoXXXH. X.XP.F.T.f.XX X X X X X X X XF.G.J.H.z.6.XXH. X XJ.J.K.K.K.K.K.L.G.P.6.#XoXL.H.H.H.K.J.J. X XF.oXH.+X XL.G.G.",
"!.@XJ.J. XK.K.oX.XK.oXH. XR.7.Q.U.U.I.L.F.G.G.G.K.H. XJ.E.f.#XH.F.L.L.L.I.I.I.U.I.E.L.L.8.oXI.E.U.U.I.I.I.I.I.L.F.H.T.5.F.U.L.P.",
"0.oXH.K.K.G.G.J. XI.G.F.J.z.9.0.K.K.K.J.J.J. X XK.F.H.K.R.8..XI. XJ.J.J.K.K.K.H. XP.G.J.+XoXF.F.H.H.H.H.G.G.G.G. X XT.6.K.G.K.L.",
"Q.@XJ. XoXK.K. XH.H. XL.H.R.6.XXH.H.H.G.F.L.L.I.J.I.F.J.T.7. XU.G.G.G.F.F.L.L.L.K.x.}.R.9.U.P.K.L.L.I.I.U.P.P.P.T.L.}.9.U.E.P.R.",
"|..XJ.oXoXK.H.J.G.XX|.L.H.H.OX@XK.K.K.H.H.H.H.H. XL.G. XT.5.J.L.H.H.H.G.G.F.F.F.K.R.U.I.6.G.F. XH.H.G.G.F.L.L.L.E.G.L.d.H.T.L.L.",
"~.oXK. X XH.G.H.I. XXXU.F.I.f. XG.G.G.H.K.J.J. XoXL.H. X}.^.K.H.G.G.F.F.F.L.L.L.I.I.oXK.8. XF.U.F.F.F.L.L.L.L.L.R.G.I.f.H.P.F.F.",
"g.f.7.f.d.6.5.6.5.|.3.4.8.oXa.+XQ.|.|.0.~.~.#X#X3.0.!.9.G.8.Q.4.XX@X@X@X.X.X.XoX XXX0.I.!.K.G.R.L.L.L.L.F.F.F.F.F.L.l.!.L.I.G.U.",
"gXpXsXpXiX0X;XqXgX_.dXgXwXu.hXrXjXwXgXkXsX;X-X8X&Xu.*X&X4._.i.$XqXqX;X;X;X9X9X9X9XqXdX3.u.s.p.g.'.a.a.u.u.i.i.p.%XOX#X*XOXa.a.d.",
" X XJ.J.J.K.K.K.@X@X@X@X@X@X@X@X~.Q.J.J.G. X|.x.K.K.H.H.H.G.G.G.I.I.I.I.I.I.I.I.J.J.J.J.J.J.J.J.U.H.H. X6.E.L.P.T.T.T.T.T.T.T.T.",
"}.}.W.W.x.x.x.x.x.x.x.x.x.x.x.x.W.U.}.P.P.J.5.H.E.}.}.}.W.W.W.W.l.l.l.l.l.l.l.l.k.k.k.k.k.k.k.k.k.W.W.R.~.v.z.:X:X:X:X:X:X:X:X:X",
".X.XoXoXoX X X XK.K.K.K.K.K.K.K.P.H.I.F.P.H.6.XX X X XJ.J.K.K.K.H.H.H.H.H.H.H.H.G.G.G.G.G.G.G.G.F.K.H. X8.P.H.I.G.G.G.G.G.G.G.G.",
"@X@X@X.X.X.XoXoXoXoXoXoXoXoXoXoX.X0..X.XU.L.5.~. X XJ.J.J.K.K.K.K.K.K.K.K.K.K.K.J.J.J.J.J.J.J.J.F.H.F.K.7.P.H.I.G.G.G.G.G.G.G.G.",
"K.K.H.H.H.G.G.G.G.G.G.G.G.G.G.G.F.J.G.J.T.I.6.9.H.H.H.H.G.G.G.F.G.G.G.G.G.G.G.G.L.L.L.L.L.L.L.L.I.L.T.L.5.R.F.T.I.I.I.I.I.I.I.I.",
"#X#X#XXXXX@X@X@XoXoXoXoXoXoXoXoXG.K.L.J.U.U.4.^.@X@X.X.X.XoXoXoXoXoXoXoXoXoXoXoXJ.J.J.J.J.J.J.J.J.J.L.K.d.F.oXG.K.K.K.K.K.K.K.K.",
".X.X.XoXoX X X XK.K.K.K.K.K.K.K.XXXXK.XXG.L.3.|.H.H.H.G.G.F.F.F.L.L.L.L.L.L.L.L.L.L.L.L.L.L.L.L.L.U.}.P.4.T.F.T.U.U.U.U.U.U.U.U.",
"XX@X@X@X.X.X.XoXoXoXoXoXoXoXoXoX XK.L.@XK.H.6.!..X.XoXoX X X X XK.K.K.K.K.K.K.K.G.G.G.G.G.G.G.G.J.H.P.F.8.F. XL.K.K.K.K.K.K.K.K."
};
