/* XPM */
static char *_b942aa8332d4f3baa267d12a59d97c3cRMPph3VNy9a3NSc[] = {
/* columns rows colors chars-per-pixel */
"12 12 107 2 ",
"   c #5C5A66",
".  c #5D5C68",
"X  c #5C5B5E",
"o  c #5A5B5E",
"O  c #5E5C5D",
"+  c #5F5C5B",
"@  c #5D5B5C",
"#  c #615C5A",
"$  c #5F5B5A",
"%  c #5C5B63",
"&  c #605956",
"*  c #665A51",
"=  c #5D595E",
"-  c #5E5B63",
";  c #5D5C5E",
":  c #5F5C5E",
">  c #5E5B5F",
",  c #5F5B5E",
"<  c #615C5D",
"1  c #605C5B",
"2  c #5E5C66",
"3  c #615B5F",
"4  c #675B5C",
"5  c #5F5957",
"6  c #605B61",
"7  c #605B5A",
"8  c #5B5B61",
"9  c #5D5D69",
"0  c #5E5E66",
"q  c #656061",
"w  c #63616D",
"e  c #625E61",
"r  c #645E63",
"t  c #675E59",
"y  c #6D5E55",
"u  c #6887B0",
"i  c #6887B3",
"p  c #6887B1",
"a  c #6787B5",
"s  c #6787B2",
"d  c #6788B2",
"f  c #6579A3",
"g  c #657EA8",
"h  c #657DA8",
"j  c #647DA9",
"k  c #6780A9",
"l  c #6880A9",
"z  c #6B9BCF",
"x  c #678DC0",
"c  c #6A96CA",
"v  c #6B99CD",
"b  c #6891C5",
"n  c #6B6A73",
"m  c #698BB5",
"M  c #6993C6",
"N  c #6689BC",
"B  c #688FC3",
"V  c #678EC1",
"C  c #6E5E53",
"Z  c #6A6364",
"A  c #677B9D",
"S  c #6A95C8",
"D  c #6B9ACE",
"F  c #6D6059",
"G  c #685F59",
"H  c #645E5C",
"J  c #65718A",
"K  c #6786B0",
"L  c #6686B1",
"P  c #6581AD",
"I  c #6787B1",
"U  c #6786B1",
"Y  c #6888B2",
"T  c #6580AA",
"R  c #655E5A",
"E  c #675F5B",
"W  c #645F5D",
"Q  c #615F67",
"!  c #605F6A",
"~  c #605F69",
"^  c #61616E",
"/  c #636269",
"(  c #67646A",
")  c #646269",
"_  c #636067",
"`  c #676064",
"'  c #645D61",
"]  c #655F63",
"[  c #645F63",
"{  c #5E5D6C",
"}  c #5E5E6B",
"|  c #606069",
" . c #60606B",
".. c #62626B",
"X. c #636168",
"o. c #625F66",
"O. c #686063",
"+. c #675F5A",
"@. c #655F5C",
"#. c #605F60",
"$. c #5E5D60",
"%. c #626264",
"&. c #616163",
"*. c #636161",
"=. c #605D5D",
"-. c #645C59",
";. c #685D56",
/* pixels */
"  . X o O + @ # $ % & * ",
"= - X ; : > , < 1 2 3 4 ",
"5 6 7 8 9 0 q w e r t y ",
"u i p a s d f g h j k l ",
"z z z z z z x c c c v b ",
"v z z z z z b z z z z b ",
"n m z M b b N B V b b N ",
"C Z A S z z b z D z z b ",
"F G H J K L P I U Y L T ",
"R E W Q ! ~ ^ / ( ) _ ` ",
"' ] [ { } |  .../ X.o.O.",
"+.@.@.#.$.%.&.*.#.=.-.;."
};
